<mxfile host="app.diagrams.net" agent="Mozilla/5.0 (Windows NT 10.0; Win64; x64) AppleWebKit/537.36 (KHTML, like Gecko) Chrome/134.0.0.0 Safari/537.36 Edg/134.0.0.0" version="26.1.1">
  <diagram name="Страница — 1" id="enso2YDKd-ztOWyLuzH1">
    <mxGraphModel dx="1683" dy="1621" grid="1" gridSize="10" guides="1" tooltips="1" connect="1" arrows="1" fold="1" page="1" pageScale="1" pageWidth="827" pageHeight="1169" math="0" shadow="0">
      <root>
        <mxCell id="0" />
        <mxCell id="1" parent="0" />
        <mxCell id="EFLvKGrMKl1YvmJV2IuE-40" value="" style="shape=image;verticalLabelPosition=bottom;labelBackgroundColor=default;verticalAlign=top;aspect=fixed;imageAspect=0;image=https://refactoring.guru/images/patterns/diagrams/visitor/structure-ru.png;" vertex="1" parent="1">
          <mxGeometry x="210" y="930" width="520" height="540" as="geometry" />
        </mxCell>
        <mxCell id="EFLvKGrMKl1YvmJV2IuE-114" style="edgeStyle=orthogonalEdgeStyle;rounded=0;orthogonalLoop=1;jettySize=auto;html=1;entryX=0;entryY=0.5;entryDx=0;entryDy=0;" edge="1" parent="1" source="EFLvKGrMKl1YvmJV2IuE-98" target="EFLvKGrMKl1YvmJV2IuE-99">
          <mxGeometry relative="1" as="geometry" />
        </mxCell>
        <mxCell id="EFLvKGrMKl1YvmJV2IuE-98" value="&lt;b&gt;Client&lt;/b&gt;" style="html=1;whiteSpace=wrap;" vertex="1" parent="1">
          <mxGeometry x="-20" y="-140" width="100" height="30" as="geometry" />
        </mxCell>
        <mxCell id="EFLvKGrMKl1YvmJV2IuE-99" value="«interface»&lt;br&gt;&lt;b&gt;Prototype&lt;/b&gt;" style="html=1;whiteSpace=wrap;" vertex="1" parent="1">
          <mxGeometry x="140" y="-150" width="110" height="50" as="geometry" />
        </mxCell>
        <mxCell id="EFLvKGrMKl1YvmJV2IuE-100" value="+clone():Prototype" style="html=1;whiteSpace=wrap;" vertex="1" parent="1">
          <mxGeometry x="140" y="-100" width="110" height="30" as="geometry" />
        </mxCell>
        <mxCell id="EFLvKGrMKl1YvmJV2IuE-101" value="ConcretePrototype&lt;div&gt;&lt;br&gt;&lt;/div&gt;" style="swimlane;fontStyle=1;align=center;verticalAlign=top;childLayout=stackLayout;horizontal=1;startSize=26;horizontalStack=0;resizeParent=1;resizeParentMax=0;resizeLast=0;collapsible=1;marginBottom=0;whiteSpace=wrap;html=1;" vertex="1" parent="1">
          <mxGeometry x="120" y="-30" width="180" height="100" as="geometry" />
        </mxCell>
        <mxCell id="EFLvKGrMKl1YvmJV2IuE-102" value="-field1" style="text;strokeColor=none;fillColor=none;align=left;verticalAlign=top;spacingLeft=4;spacingRight=4;overflow=hidden;rotatable=0;points=[[0,0.5],[1,0.5]];portConstraint=eastwest;whiteSpace=wrap;html=1;" vertex="1" parent="EFLvKGrMKl1YvmJV2IuE-101">
          <mxGeometry y="26" width="180" height="26" as="geometry" />
        </mxCell>
        <mxCell id="EFLvKGrMKl1YvmJV2IuE-103" value="" style="line;strokeWidth=1;fillColor=none;align=left;verticalAlign=middle;spacingTop=-1;spacingLeft=3;spacingRight=3;rotatable=0;labelPosition=right;points=[];portConstraint=eastwest;strokeColor=inherit;" vertex="1" parent="EFLvKGrMKl1YvmJV2IuE-101">
          <mxGeometry y="52" width="180" height="8" as="geometry" />
        </mxCell>
        <mxCell id="EFLvKGrMKl1YvmJV2IuE-104" value="+ConcretePrototype(prototype)&lt;div&gt;+clone():Prototype&lt;/div&gt;" style="text;strokeColor=none;fillColor=none;align=left;verticalAlign=top;spacingLeft=4;spacingRight=4;overflow=hidden;rotatable=0;points=[[0,0.5],[1,0.5]];portConstraint=eastwest;whiteSpace=wrap;html=1;" vertex="1" parent="EFLvKGrMKl1YvmJV2IuE-101">
          <mxGeometry y="60" width="180" height="40" as="geometry" />
        </mxCell>
        <mxCell id="EFLvKGrMKl1YvmJV2IuE-105" value="SubclassPrototype" style="swimlane;fontStyle=1;align=center;verticalAlign=top;childLayout=stackLayout;horizontal=1;startSize=26;horizontalStack=0;resizeParent=1;resizeParentMax=0;resizeLast=0;collapsible=1;marginBottom=0;whiteSpace=wrap;html=1;" vertex="1" parent="1">
          <mxGeometry x="120" y="120" width="180" height="100" as="geometry" />
        </mxCell>
        <mxCell id="EFLvKGrMKl1YvmJV2IuE-106" value="-field2" style="text;strokeColor=none;fillColor=none;align=left;verticalAlign=top;spacingLeft=4;spacingRight=4;overflow=hidden;rotatable=0;points=[[0,0.5],[1,0.5]];portConstraint=eastwest;whiteSpace=wrap;html=1;" vertex="1" parent="EFLvKGrMKl1YvmJV2IuE-105">
          <mxGeometry y="26" width="180" height="26" as="geometry" />
        </mxCell>
        <mxCell id="EFLvKGrMKl1YvmJV2IuE-107" value="" style="line;strokeWidth=1;fillColor=none;align=left;verticalAlign=middle;spacingTop=-1;spacingLeft=3;spacingRight=3;rotatable=0;labelPosition=right;points=[];portConstraint=eastwest;strokeColor=inherit;" vertex="1" parent="EFLvKGrMKl1YvmJV2IuE-105">
          <mxGeometry y="52" width="180" height="8" as="geometry" />
        </mxCell>
        <mxCell id="EFLvKGrMKl1YvmJV2IuE-108" value="+Subclass&lt;span style=&quot;background-color: transparent; color: light-dark(rgb(0, 0, 0), rgb(255, 255, 255));&quot;&gt;Prototype(prototype)&lt;/span&gt;&lt;div&gt;&lt;div&gt;+clone():Prototype&lt;/div&gt;&lt;/div&gt;" style="text;strokeColor=none;fillColor=none;align=left;verticalAlign=top;spacingLeft=4;spacingRight=4;overflow=hidden;rotatable=0;points=[[0,0.5],[1,0.5]];portConstraint=eastwest;whiteSpace=wrap;html=1;" vertex="1" parent="EFLvKGrMKl1YvmJV2IuE-105">
          <mxGeometry y="60" width="180" height="40" as="geometry" />
        </mxCell>
        <mxCell id="EFLvKGrMKl1YvmJV2IuE-110" value="" style="endArrow=block;endSize=16;endFill=0;html=1;rounded=0;exitX=0.5;exitY=0;exitDx=0;exitDy=0;" edge="1" parent="1" source="EFLvKGrMKl1YvmJV2IuE-105">
          <mxGeometry width="160" relative="1" as="geometry">
            <mxPoint x="270" y="60" as="sourcePoint" />
            <mxPoint x="210" y="67" as="targetPoint" />
          </mxGeometry>
        </mxCell>
        <mxCell id="EFLvKGrMKl1YvmJV2IuE-111" value="" style="endArrow=block;dashed=1;endFill=0;endSize=12;html=1;rounded=0;exitX=0.433;exitY=-0.02;exitDx=0;exitDy=0;exitPerimeter=0;entryX=0.5;entryY=1;entryDx=0;entryDy=0;" edge="1" parent="1" source="EFLvKGrMKl1YvmJV2IuE-101" target="EFLvKGrMKl1YvmJV2IuE-100">
          <mxGeometry width="160" relative="1" as="geometry">
            <mxPoint x="270" y="60" as="sourcePoint" />
            <mxPoint x="198" y="-60" as="targetPoint" />
          </mxGeometry>
        </mxCell>
      </root>
    </mxGraphModel>
  </diagram>
</mxfile>
